<mxfile host="app.diagrams.net" modified="2023-05-22T10:58:48.991Z" agent="Mozilla/5.0 (Windows NT 10.0; Win64; x64) AppleWebKit/537.36 (KHTML, like Gecko) Chrome/113.0.0.0 Safari/537.36 Edg/113.0.1774.50" version="21.3.2" etag="C9oacGsuZ6pLwal-vqVl" type="github">
  <diagram name="Seite-1" id="UQUFMI_b5mMjUcVUTE9H">
    <mxGraphModel>
      <root>
        <mxCell id="0" />
        <mxCell id="1" parent="0" />
      </root>
    </mxGraphModel>
  </diagram>
</mxfile>
